<?xml version="1.0" standalone="no"?>
<!DOCTYPE svg PUBLIC "-//W3C//DTD SVG 20010904//EN"
 "http://www.w3.org/TR/2001/REC-SVG-20010904/DTD/svg10.dtd">
<svg version="1.0" xmlns="http://www.w3.org/2000/svg"
 width="643.000000pt" height="643.000000pt" viewBox="0 0 643.000000 643.000000"
 preserveAspectRatio="xMidYMid meet">
<metadata>
Created by potrace 1.14, written by Peter Selinger 2001-2017
</metadata>
<g transform="translate(0.000000,643.000000) scale(0.100000,-0.100000)"
fill="#000000" stroke="none">
<path d="M3850 4943 c-685 -686 -1244 -1249 -1243 -1253 2 -6 -63 -6 -87 -1
-3 1 -5 398 -4 884 0 485 -1 887 -3 892 -2 7 -46 11 -114 10 -97 0 -113 -3
-125 -19 -11 -16 -130 -150 -174 -196 -8 -9 -49 -54 -90 -100 -41 -47 -84 -94
-95 -106 -11 -12 -51 -56 -90 -99 -38 -43 -79 -88 -90 -101 -115 -127 -151
-169 -156 -183 -3 -9 -5 -463 -5 -1010 l1 -994 -789 -789 c-477 -477 -783
-790 -775 -793 8 -2 70 -20 139 -40 l125 -35 104 102 c57 57 127 126 156 155
l52 52 78 -65 c43 -35 92 -74 109 -86 17 -12 33 -25 36 -28 10 -13 198 -146
305 -216 341 -222 748 -417 1090 -522 97 -30 274 -76 325 -85 14 -3 63 -12
110 -20 106 -19 178 -29 325 -42 67 -6 351 -7 405 -1 19 2 67 7 105 10 39 3
81 8 95 11 14 2 54 9 90 15 102 16 119 19 221 45 273 68 572 194 829 348 153
92 398 266 506 362 526 463 832 871 1032 1375 63 158 129 402 146 540 3 25 8
56 11 69 24 123 24 566 0 690 -2 10 -6 42 -10 71 -4 29 -9 62 -11 74 -2 12 -7
37 -10 56 -15 84 -79 325 -116 435 -96 288 -244 598 -425 894 -181 296 -433
622 -683 882 l-55 58 -1245 -1246z m1155 -63 c83 -110 285 -410 285 -424 0 -2
23 -43 51 -92 233 -405 394 -896 424 -1295 9 -118 5 -331 -9 -434 -61 -455
-272 -853 -644 -1214 -350 -339 -771 -548 -1207 -598 -85 -9 -366 -10 -455 -1
-314 32 -701 152 -1035 321 -203 103 -479 270 -473 286 3 7 45 57 149 172 63
69 176 194 189 209 8 9 51 56 95 106 44 49 93 104 110 121 l30 32 0 446 0 445
55 0 c76 1 1317 1 1360 1 l35 -1 0 -827 c-1 -456 1 -835 3 -844 3 -14 20 -16
110 -17 121 0 98 -13 232 138 41 46 82 91 90 100 8 9 53 58 100 110 47 52 87
97 90 100 3 3 41 46 85 95 44 50 98 110 121 135 23 25 57 63 76 85 l34 40 -1
1462 c0 1253 2 1460 14 1450 8 -7 46 -55 86 -107z m-1040 -700 c0 -320 -3
-490 -10 -491 -30 -4 -961 -5 -969 -1 -5 3 214 225 485 493 272 269 494 489
494 489 0 0 0 -221 0 -490z m-2390 -2190 c0 -165 -2 -300 -4 -300 -2 0 -42 32
-88 71 -75 63 -110 95 -211 187 l-25 24 159 159 c87 87 161 159 164 159 3 0 5
-135 5 -300z"/>
</g>
</svg>
